<svg width="230" height="76" viewBox="0 0 230 76" fill="none" xmlns="http://www.w3.org/2000/svg">
<path d="M3.36 13.4H23.712L28.368 18.056V27.464L26.304 29.528L29.856 33.08V41.96L24.816 47H3.36V13.4ZM20.928 27.848L22.896 25.88V20.024L20.976 18.104H8.784V27.848H20.928ZM22.08 42.296L24.384 39.992V34.616L22.08 32.36H8.784V42.296H22.08ZM40.4212 41.384V13.4H45.9892V39.512L48.7252 42.2H58.6133L61.3493 39.512V13.4H66.9173V41.384L61.3012 47H46.0372L40.4212 41.384ZM79.1756 13.4H84.7436V47H79.1756V13.4ZM96.9656 13.4H102.534V42.248H119.43V47H96.9656V13.4ZM128.777 13.4H149.561L155.177 19.016V41.384L149.561 47H128.777V13.4ZM146.873 42.2L149.609 39.512V20.888L146.873 18.2H134.345V42.2H146.873ZM166.682 13.4H190.106V18.152H172.25V27.752H188.714V32.456H172.25V42.248H190.106V47H166.682V13.4ZM226.185 36.152V47H220.617V37.496L217.161 33.704H206.217V47H200.649V13.4H221.097L225.993 18.344V28.664L222.489 32.168L226.185 36.152ZM206.217 29.096H218.601L220.521 27.176V20.024L218.601 18.104H206.217V29.096Z" fill="black"/>
<path d="M3.36035 58H53.3604V63H8.6062L3.36035 58Z" fill="#EFC118"/>
<path d="M226.18 58H176.18V63H220.934L226.18 58Z" fill="#EFC118"/>
<path d="M11.7578 66H53.3604V71H17L11.7578 66Z" fill="#EFC118"/>
<path d="M217.782 66H176.18V71H212.54L217.782 66Z" fill="#EFC118"/>
<path d="M61.6219 71V58.025H63.3113L76.3455 68.998H76.3624V58.025H77.9842V71H76.2948L63.2606 59.9341H63.2437V71H61.6219ZM82.5772 71L90.1459 58.025H92.3084L99.8772 71H97.985L96.3631 68.0266H86.0912L84.4694 71H82.5772ZM86.9022 66.675H95.5522L91.2272 59.1063L86.9022 66.675ZM110.121 71V59.3766H103.634V58.025H118.231V59.3766H111.743V71H110.121ZM123.069 71V58.025H124.691V71H123.069ZM136.092 71.2703C134.825 71.2703 133.783 71.183 132.966 71.0084C132.15 70.8395 131.511 70.5241 131.049 70.0624C130.593 69.6006 130.272 68.9361 130.086 68.0688C129.906 67.2015 129.816 66.0724 129.816 64.6814V64.3436C129.816 63.1947 129.872 62.2317 129.985 61.4546C130.097 60.6718 130.291 60.0354 130.567 59.5455C130.843 59.0556 131.218 58.6811 131.691 58.422C132.17 58.163 132.769 57.9884 133.49 57.8983C134.211 57.8026 135.078 57.7547 136.092 57.7547H139.496C140.51 57.7547 141.377 57.8026 142.098 57.8983C142.819 57.9884 143.416 58.163 143.889 58.422C144.367 58.6811 144.745 59.0556 145.021 59.5455C145.297 60.0354 145.491 60.6718 145.604 61.4546C145.716 62.2317 145.773 63.1947 145.773 64.3436V64.6814C145.773 66.0724 145.68 67.2015 145.494 68.0688C145.314 68.9361 144.993 69.6006 144.531 70.0624C144.075 70.5241 143.438 70.8395 142.622 71.0084C141.805 71.183 140.763 71.2703 139.496 71.2703H136.092ZM136.092 69.8681H139.496C140.302 69.8681 140.98 69.8399 141.532 69.7836C142.084 69.7273 142.532 69.6062 142.875 69.4204C143.224 69.2345 143.489 68.9529 143.669 68.5756C143.855 68.1983 143.982 67.6943 144.049 67.0636C144.117 66.4328 144.151 65.6388 144.151 64.6814V64.3436C144.151 63.3524 144.117 62.5358 144.049 61.8938C143.982 61.2519 143.855 60.745 143.669 60.3733C143.489 60.0017 143.224 59.7313 142.875 59.5624C142.532 59.3878 142.084 59.278 141.532 59.233C140.98 59.1823 140.302 59.1569 139.496 59.1569H136.092C135.287 59.1569 134.608 59.1823 134.056 59.233C133.504 59.278 133.054 59.3878 132.705 59.5624C132.361 59.7313 132.096 60.0017 131.911 60.3733C131.73 60.745 131.606 61.2519 131.539 61.8938C131.471 62.5358 131.438 63.3524 131.438 64.3436V64.6814C131.438 65.6388 131.471 66.4328 131.539 67.0636C131.606 67.6943 131.73 68.1983 131.911 68.5756C132.096 68.9529 132.361 69.2345 132.705 69.4204C133.054 69.6062 133.504 69.7273 134.056 69.7836C134.608 69.8399 135.287 69.8681 136.092 69.8681ZM150.906 71V58.025H152.596L165.63 68.998H165.647V58.025H167.268V71H165.579L152.545 59.9341H152.528V71H150.906Z" fill="#EFC118"/>
</svg>
